<svg xmlns="http://www.w3.org/2000/svg" xmlns:xlink="http://www.w3.org/1999/xlink" viewBox="0 0 66 66"><defs><rect id="a" width="66" height="66" x="0" y="0" rx="10"/></defs><g fill="none" fill-rule="evenodd"><mask id="b" fill="#fff"><use xlink:href="#a"/></mask><use fill="#FFF" xlink:href="#a"/><path fill="#000" fill-rule="nonzero" d="M18 14.004h17.514a24.3 24.3 0 016.872.861 13.03 13.03 0 014.824 2.5 10.065 10.065 0 012.854 3.983c.644 1.69.962 3.498.934 5.318a15.294 15.294 0 01-.462 3.813c-.6 2.4-1.949 4.522-3.834 6.029a12.936 12.936 0 01-3.413 1.971l7.491 11.51H40.493l-6.475-10.213h-.199l-7.099-.024V50H18V14.004zm17.466 18.133a9.728 9.728 0 002.906-.389 5.915 5.915 0 002.085-1.097 4.359 4.359 0 001.256-1.714 5.857 5.857 0 00.414-2.253c0-1.618-.553-2.87-1.659-3.754-1.106-.885-2.773-1.328-5.002-1.328h-8.97v10.535h8.97z" mask="url(#b)"/></g></svg>