<svg width="36" height="36" fill="none" xmlns="http://www.w3.org/2000/svg"><path fill-rule="evenodd" clip-rule="evenodd" d="M23.32 15.516c.878-2.174-.728-5.017-2.42-6.81.656-2.38.742-5.642-1.052-7.148-1.794-1.508-4.994-.86-7.226.196C10.562.394 7.486-.697 5.496.542c-1.988 1.24-2.36 4.485-2.046 6.932-1.928 1.538-3.918 4.127-3.352 6.4.566 2.274 3.536 3.631 5.96 4.087.868 2.31 2.716 5 5.054 5.167 1.656.116 3.24-1.062 4.448-2.526 2.44 3.04 4.164 6.253 5.11 9.41-1.446-2.16-4.44-4.02-10.67-4.02 0 8.308 6.084 10.004 10 10.004l6.4.004c0-5.444-1.972-11.817-6.58-17.797 1.566-.494 2.958-1.354 3.5-2.687zm-8.754-.44a4.896 4.896 0 01-7.483-3.984 4.893 4.893 0 019.044-2.757 4.892 4.892 0 01-1.563 6.741h.002zm14.83 20.82c-.018-4.503-1.19-9.067-3.356-13.406 2.62-6.42 9.96-8.488 9.96-8.488 0 8.404-.008 17.153-6.604 21.894z" fill="#8CC9CD"/></svg>