<svg width="31" height="36" fill="none" xmlns="http://www.w3.org/2000/svg"><path fill-rule="evenodd" clip-rule="evenodd" d="M24.829 18c.463.177.927.386 1.375.643C29.28 20.43 30.992 23.67 31 27.008c-2.87 1.657-6.515 1.786-9.585 0a10.832 10.832 0 01-1.247-.877c.072.499.128.998.128 1.52A9.657 9.657 0 0115.5 36a9.647 9.647 0 01-4.796-8.349c0-.522.056-1.021.128-1.536-.392.322-.8.62-1.247.877-3.07 1.785-6.715 1.657-9.585 0 .008-3.33 1.719-6.571 4.788-8.357a9.654 9.654 0 011.375-.643 9.665 9.665 0 01-1.375-.643C1.718 15.563.008 12.322 0 8.992c2.87-1.657 6.515-1.786 9.585 0 .447.265.855.563 1.247.877a9.516 9.516 0 01-.128-1.52A9.647 9.647 0 0115.5 0a9.647 9.647 0 014.796 8.349 9.7 9.7 0 01-.136 1.528c.392-.322.8-.62 1.247-.877 3.07-1.786 6.715-1.657 9.585 0-.008 3.33-1.719 6.571-4.788 8.357a9.663 9.663 0 01-1.375.643zM9.105 18c0 3.555 2.862 6.434 6.395 6.434 3.533 0 6.395-2.879 6.395-6.434s-2.862-6.434-6.395-6.434c-3.533 0-6.395 2.879-6.395 6.434z" fill="#8CC9CD"/></svg>