<svg width="32" height="32" fill="none" xmlns="http://www.w3.org/2000/svg"><path fill-rule="evenodd" clip-rule="evenodd" d="M16 3.636c-3.358 0-3.78.014-5.098.074-1.316.06-2.215.269-3.001.575A6.06 6.06 0 005.71 5.71 6.06 6.06 0 004.285 7.9c-.306.786-.515 1.685-.575 3-.06 1.32-.075 1.74-.075 5.099 0 3.358.015 3.779.075 5.097.06 1.316.269 2.215.575 3.002a6.06 6.06 0 001.426 2.19 6.062 6.062 0 002.19 1.426c.786.305 1.685.514 3 .574 1.32.06 1.74.075 5.099.075 3.357 0 3.779-.015 5.097-.075 1.316-.06 2.215-.269 3.001-.574a6.062 6.062 0 002.19-1.427 6.06 6.06 0 001.427-2.19c.305-.786.514-1.685.574-3 .06-1.32.075-1.74.075-5.098 0-3.358-.015-3.78-.075-5.098-.06-1.316-.269-2.215-.575-3.001a6.06 6.06 0 00-1.426-2.19 6.06 6.06 0 00-2.19-1.426c-.786-.306-1.685-.515-3-.575-1.32-.06-1.74-.074-5.098-.074zm0 2.227c3.301 0 3.692.013 4.996.072 1.205.055 1.86.257 2.296.426a3.83 3.83 0 011.421.925c.433.433.7.845.925 1.422.17.435.37 1.09.426 2.296.06 1.303.072 1.694.072 4.996 0 3.3-.013 3.692-.072 4.996-.055 1.205-.257 1.86-.426 2.296a3.83 3.83 0 01-.925 1.421 3.83 3.83 0 01-1.421.925c-.436.17-1.09.37-2.296.426-1.304.06-1.695.072-4.996.072-3.302 0-3.693-.013-4.996-.072-1.206-.055-1.86-.257-2.296-.426a3.83 3.83 0 01-1.422-.925 3.83 3.83 0 01-.925-1.421c-.17-.436-.37-1.09-.426-2.296-.059-1.304-.072-1.695-.072-4.996 0-3.302.013-3.693.072-4.996.055-1.206.257-1.86.426-2.296a3.83 3.83 0 01.925-1.422 3.83 3.83 0 011.422-.925c.435-.17 1.09-.37 2.296-.426 1.303-.06 1.694-.072 4.996-.072zm0 14.258a4.121 4.121 0 110-8.243 4.121 4.121 0 010 8.243zM9.65 16a6.349 6.349 0 1112.699 0A6.349 6.349 0 019.65 16zm12.95-5.117a1.484 1.484 0 100-2.967 1.484 1.484 0 000 2.967z" fill="#fff"/></svg>