<svg width="259" height="85" xmlns="http://www.w3.org/2000/svg"><g id="Landing/Promo" stroke="none" stroke-width="1" fill="none" fill-rule="evenodd"><g id="A-Home" transform="translate(-591 -283)" fill-rule="nonzero"><g id="logo" transform="translate(591 283)"><g id="Group-2" transform="translate(3.8)"><path d="M0 .005h19.845a27.714 27.714 0 017.787.969 14.814 14.814 0 015.466 2.812 11.328 11.328 0 013.233 4.482 16.005 16.005 0 011.06 5.984 17.096 17.096 0 01-.525 4.29c-.68 2.7-2.208 5.088-4.344 6.784a14.683 14.683 0 01-3.868 2.218l8.489 12.953h-9.688l-7.337-11.493h-.225l-11.98-.027v11.531H0V.005zM20.044 21.84c1.33.025 2.654-.158 3.93-.544a7.916 7.916 0 002.82-1.532 6.082 6.082 0 001.698-2.394 8.41 8.41 0 00.56-3.15c0-2.26-.747-4.007-2.243-5.244-1.496-1.236-3.751-1.854-6.765-1.854H7.913V21.84h12.131zM90.364.005h21.017a27.8 27.8 0 017.958 1.011 15.093 15.093 0 015.586 2.913 11.732 11.732 0 013.305 4.652 16.812 16.812 0 011.082 6.196 16.29 16.29 0 01-1.071 5.985 12.487 12.487 0 01-3.278 4.756 15.435 15.435 0 01-5.57 3.134c-2.579.8-5.265 1.18-7.96 1.127l-12.986-.027v10.756h-8.083V.005zm21.22 22.646c1.36.026 2.714-.162 4.017-.555a8.007 8.007 0 002.886-1.583 6.33 6.33 0 001.731-2.487 8.775 8.775 0 00.573-3.268c0-2.402-.769-4.273-2.308-5.614-1.539-1.341-3.84-2.01-6.902-2.008H98.447v15.496l13.137.02z" id="Shape" fill="#222221"/><path id="Path" fill="#000" d="M137.104 0h7.79v40.508h-7.79zM155.8 0h7.983l24.538 13.218V0h7.987v40.508h-7.987V21.906L163.783 8.765v31.724H155.8z"/><path d="M221.328 0h8.6l19.352 40.508h-8.527l-3.199-6.818h-23.368l-3.096 6.818h-8.55L221.328 0zm13.028 26.926l-8.652-18.395-8.422 18.395h17.074z" id="Shape" fill="#222221"/><path id="Path" fill="#000" d="M48.298 0h33.736v7.208h-25.7v8.09h18.273v6.748H56.335v11.28h26.239v7.182H48.298z"/></g><path d="M9.848 81.7c1.682 0 2.985-.361 3.907-1.084.923-.723 1.384-1.74 1.384-3.048 0-1.246-.415-2.2-1.243-2.86-.83-.66-2.035-.991-3.618-.991H6.65v-2.692h7.553v-2.412H3.641V81.7h6.207zm-.168-2.244H6.65v-3.514h3.03c1.595 0 2.393.573 2.393 1.72 0 .585-.206 1.031-.617 1.336-.412.306-1.004.458-1.776.458zM25.035 82c.885 0 1.705-.255 2.459-.766s1.399-1.265 1.935-2.263L35 68.613h-2.972l-3.59 7.03-3.478-7.03h-3.234l5.16 9.61-.112.15c-.25.385-.524.67-.823.85-.299.18-.635.27-1.01.27-.348 0-.784-.08-1.308-.242l-.73 2.3c.736.299 1.447.448 2.132.448zm20.61-.299v-5.272h2.093l3.403 5.272h3.44l-4.412-6.768 4.281-6.32h-3.197l-3.44 5.292h-2.169v-5.291h-3.01V81.7h3.01zm26.722 0v-2.43h-7.123v-3.03h6.076v-2.355h-6.076v-2.842h6.88v-2.43h-9.89V81.7h10.133zm14.496 0V71.08h4.188v-2.467H79.702v2.468h4.17V81.7h2.99zm15.187 0l6.245-8.507V81.7h2.991V68.613h-2.842l-6.244 8.525v-8.525h-3.01V81.7h2.86zm33.198 0V68.613h-3.029V81.7h3.03zm22.392 2.71V81.7h9.236v2.71h2.804v-5.178h-1.832v-10.62h-10.059l-.15 4.095c-.074 2.082-.273 3.683-.598 4.805-.324 1.122-.878 1.695-1.663 1.72h-.524l-.019 5.179h2.805zm7.216-5.178h-5.851c.41-.498.716-1.274.916-2.328.2-1.053.33-2.358.392-3.916l.056-1.907h4.487v8.151zm23.227 2.468v-2.43h-7.123v-3.03h6.076v-2.355h-6.076v-2.842h6.88v-2.43h-9.89V81.7h10.133zm11.654 0v-5.272h2.094l3.403 5.272h3.44l-4.413-6.768 4.282-6.32h-3.197l-3.44 5.292h-2.17v-5.291h-3.01V81.7h3.01zm22.778.224c1.358 0 2.58-.293 3.664-.878a6.606 6.606 0 002.562-2.421c.623-1.029.934-2.185.934-3.469 0-1.283-.311-2.44-.934-3.468a6.606 6.606 0 00-2.562-2.42c-1.084-.587-2.306-.88-3.664-.88-1.359 0-2.583.293-3.674.88a6.522 6.522 0 00-2.561 2.42c-.617 1.029-.926 2.185-.926 3.468 0 1.284.309 2.44.926 3.469a6.522 6.522 0 002.561 2.42c1.09.586 2.315.88 3.674.88zm0-2.58c-.773 0-1.47-.177-2.094-.533a3.824 3.824 0 01-1.468-1.486c-.355-.636-.533-1.358-.533-2.169 0-.81.178-1.533.533-2.168a3.824 3.824 0 011.468-1.487c.623-.355 1.321-.533 2.094-.533.773 0 1.47.178 2.094.533a3.827 3.827 0 011.467 1.487c.356.635.533 1.358.533 2.168s-.177 1.533-.533 2.17a3.824 3.824 0 01-1.467 1.485c-.623.356-1.321.533-2.094.533zm18.758 2.356v-3.608h2.636c1.16 0 2.166-.19 3.02-.57.853-.38 1.511-.93 1.972-1.646.461-.716.692-1.555.692-2.514 0-.973-.23-1.814-.692-2.524-.461-.71-1.119-1.26-1.972-1.646-.854-.386-1.86-.58-3.02-.58h-5.665V81.7h3.03zm2.468-6.076h-2.468V71.08h2.468c.91 0 1.602.196 2.075.589.474.392.71.956.71 1.692 0 .722-.236 1.28-.71 1.673-.473.392-1.165.589-2.075.589z" id="БУКЕТИIДЕКОР" fill="#000"/><path d="M129.314 51.3h126.198a3.116 3.116 0 010 6.232H129.314V51.3z" id="Rectangle" fill="#6bc333"/><path d="M3.116 51.3h126.198v6.232H3.116a3.116 3.116 0 110-6.232z" id="Rectangle-Copy" fill="#f20077"/></g></g></g></svg>