<svg width="32" height="32" fill="none" xmlns="http://www.w3.org/2000/svg"><path fill-rule="evenodd" clip-rule="evenodd" d="M16 29.818c7.632 0 13.818-6.186 13.818-13.818S23.632 2.182 16 2.182 2.182 8.368 2.182 16 8.368 29.818 16 29.818zm6.87-6.948l.434-.723a1.383 1.383 0 00-.474-1.896l-1.706-1.024a1.383 1.383 0 00-1.689.208 1.62 1.62 0 01-2.29 0l-4.58-4.58a1.62 1.62 0 010-2.29 1.383 1.383 0 00.208-1.69L11.75 9.17a1.383 1.383 0 00-1.897-.474l-.723.434c-1.686 1.686.023 6.13 3.817 9.923 3.794 3.795 8.237 5.504 9.923 3.817z" fill="#6BC333"/></svg>