<svg width="32" height="32" fill="none" xmlns="http://www.w3.org/2000/svg"><path fill-rule="evenodd" clip-rule="evenodd" d="M16.474 3.654c5.832.025 8.45 1.827 9.098 2.394 2.152 1.769 3.343 5.692 2.54 11.895-.708 5.481-4.736 6.452-6.087 6.778-.133.032-.24.058-.315.081-.366.113-3.583.876-7.767.542a66.575 66.575 0 01-1.518 1.629c-.134.137-.26.271-.379.4-.604.652-1.067 1.15-1.773.943-.7-.206-.661-1.214-.661-1.214l.004-2.49H9.61c-6.118-1.632-6.028-7.65-5.96-10.862.07-3.212.726-5.802 2.592-7.573 3.353-2.916 10.23-2.523 10.23-2.523zm4.86 19.33c1.154-.255 4.357-.961 4.947-5.486v-.001c.678-5.181-.249-8.718-2.069-10.196-.548-.472-2.912-1.88-7.846-1.901 0 0-5.842-.364-8.678 2.072C6.11 8.95 5.578 11.147 5.52 13.83l-.006.273c-.067 2.743-.183 7.577 4.82 8.894l-.022 4.138c-.002.234.037.394.18.427.101.024.253-.025.382-.148.827-.788 3.475-3.818 3.475-3.818 3.554.22 6.38-.447 6.684-.54.072-.021.174-.044.302-.072zm-4.41-11.674c1.45.072 2.263.87 2.337 2.281a.374.374 0 01-.367.384.38.38 0 01-.405-.348c-.055-1.04-.556-1.533-1.606-1.585a.374.374 0 01-.365-.385.38.38 0 01.406-.347zm2.857-.275c-.812-.84-1.932-1.304-3.35-1.403a.38.38 0 00-.414.339.373.373 0 00.358.392c1.23.086 2.165.473 2.836 1.167.67.696.993 1.558.97 2.61a.376.376 0 00.377.374.378.378 0 00.395-.359c.028-1.234-.363-2.281-1.172-3.12zM15.824 8.01c1.934.012 3.564.625 4.87 1.833 1.313 1.213 1.975 2.869 1.992 4.945a.376.376 0 01-.384.37.377.377 0 01-.389-.364c-.015-1.89-.602-3.358-1.758-4.426-1.16-1.074-2.6-1.614-4.336-1.625a.376.376 0 01-.384-.37.377.377 0 01.39-.363zm1.858 9.535c-.25.292-.713.255-.713.255-3.389-.82-4.296-4.076-4.296-4.076s-.04-.44.269-.676l.612-.462c.304-.222.497-.76.188-1.286a13.547 13.547 0 00-.772-1.148c-.27-.35-.898-1.064-.9-1.066-.303-.34-.748-.418-1.218-.186l-.005.001a5.026 5.026 0 00-1.252.961l-.003.005a.015.015 0 00-.004.004c-.29.332-.456.658-.498.976a.595.595 0 00-.009.143c-.001.14.021.28.067.415l.016.01c.146.493.513 1.314 1.309 2.682.455.792.98 1.545 1.569 2.253.295.355.611.693.947 1.013l.012.012.024.022.037.034.036.035.035.034c.338.319.695.619 1.069.899a16.95 16.95 0 002.376 1.488c1.442.755 2.309 1.102 2.828 1.24l.01.016a1.438 1.438 0 00.588.055c.337-.038.68-.195 1.029-.472a.016.016 0 00.004-.003 4.873 4.873 0 001.018-1.186l.002-.01c.244-.445.161-.867-.198-1.155l-.08-.061c-.203-.16-.748-.586-1.044-.792a14.52 14.52 0 00-1.21-.733c-.555-.293-1.121-.11-1.356.179l-.487.58z" fill="#7360F2"/></svg>