<svg width="32" height="32" fill="none" xmlns="http://www.w3.org/2000/svg"><path fill-rule="evenodd" clip-rule="evenodd" d="M16.474 3.654c5.832.025 8.45 1.827 9.099 2.394 2.151 1.769 3.342 5.692 2.54 11.895-.709 5.481-4.736 6.452-6.088 6.778-.133.032-.24.058-.315.081-.365.113-3.583.876-7.767.542a66.575 66.575 0 01-1.518 1.629 21.71 21.71 0 00-.379.4c-.603.652-1.066 1.15-1.773.943-.7-.206-.66-1.214-.66-1.214l.003-2.49H9.61c-6.117-1.632-6.028-7.65-5.958-10.862.069-3.212.725-5.802 2.592-7.573 3.352-2.916 10.23-2.523 10.23-2.523zm4.86 19.33c1.155-.255 4.357-.961 4.948-5.486v-.001c.678-5.181-.25-8.718-2.07-10.196-.548-.472-2.912-1.88-7.846-1.901 0 0-5.841-.364-8.677 2.072C6.11 8.95 5.579 11.147 5.52 13.83l-.006.273c-.066 2.743-.183 7.577 4.82 8.894l-.022 4.138c-.002.234.038.394.18.427.101.024.253-.025.382-.148.827-.788 3.476-3.818 3.476-3.818 3.553.22 6.38-.447 6.684-.54.07-.021.173-.044.3-.072zm-4.41-11.674c1.45.072 2.263.87 2.337 2.281a.374.374 0 01-.367.384.38.38 0 01-.405-.348c-.055-1.04-.556-1.533-1.605-1.585a.374.374 0 01-.366-.385.38.38 0 01.406-.347zm2.857-.275c-.812-.84-1.932-1.304-3.35-1.403a.38.38 0 00-.413.339.373.373 0 00.357.392c1.231.086 2.166.473 2.836 1.167.671.696.994 1.558.97 2.61a.376.376 0 00.378.374.378.378 0 00.394-.359c.028-1.234-.363-2.281-1.172-3.12zM15.825 8.01c1.933.012 3.563.625 4.87 1.833 1.312 1.213 1.974 2.869 1.991 4.945a.376.376 0 01-.383.37.377.377 0 01-.39-.364c-.015-1.89-.602-3.358-1.758-4.426-1.16-1.074-2.599-1.614-4.336-1.625a.376.376 0 01-.383-.37.377.377 0 01.389-.363zm1.858 9.535c-.25.292-.714.255-.714.255-3.389-.82-4.295-4.076-4.295-4.076s-.041-.44.268-.676l.612-.462c.304-.222.498-.76.188-1.286a13.545 13.545 0 00-.772-1.148 29.92 29.92 0 00-.9-1.066c-.303-.34-.748-.418-1.217-.186l-.006.001a5.026 5.026 0 00-1.252.961c0 .003-.002.004-.003.005l-.004.004c-.29.332-.456.658-.498.976a.594.594 0 00-.009.143c-.001.14.021.28.067.415l.016.01c.147.493.513 1.314 1.309 2.682.455.792.98 1.545 1.57 2.253a12.048 12.048 0 00.983 1.047l.036.034.036.035.036.034c.338.319.694.619 1.068.899a17.038 17.038 0 002.376 1.488c1.443.755 2.309 1.102 2.828 1.24l.01.016a1.437 1.437 0 00.588.055c.337-.038.68-.195 1.029-.472.002 0 .003-.002.004-.003l.005-.004c.402-.34.744-.74 1.013-1.182l.002-.01c.245-.445.162-.867-.198-1.155l-.079-.061c-.204-.16-.75-.586-1.045-.792a14.52 14.52 0 00-1.21-.733c-.554-.293-1.12-.11-1.356.179l-.486.58z" fill="#fff"/></svg>